<?xml version="1.0" encoding="iso-8859-1" standalone="no"?> 
<?xml-stylesheet href="latex-Rc4FyJ.css" type="text/css"?> 
<svg xmlns="http://www.w3.org/2000/svg" xmlns:xlink="http://www.w3.org/1999/xlink" width="60.6509pt" height="103.33002pt" viewBox="-30.32541 -94.34413 60.6509 103.33002 "> 
<g transform="translate(0, 8.98589 ) scale(1,-1) translate(0,94.34413 )"> 
         <g stroke="#000" fill="#000">
 <g stroke-width="0.4">
 <g fill="#fcc">
 <g fill="#fcc">
 <path d=" M 8.78589 0.0 C 8.78589 4.85237 4.85237 8.78589 0.0 8.78589 C -4.85237 8.78589 -8.78589 4.85237 -8.78589 0.0 C -8.78589 -4.85237 -4.85237 -8.78589 0.0 -8.78589 C 4.85237 -8.78589 8.78589 -4.85237 8.78589 0.0 Z M 0.0 0.0  " />
 </g>
 <g transform="translate(-2.5,-3.22221)">
 <g fill="#000">
 <text style="stroke:none" transform="scale(1,-1) translate(2.5,0)" text-anchor="middle"  font-size="10"> 
<g fill="#000">
 <g stroke="none"> 1</g> </g>
 </text> 
</g>
 </g>
 </g>
 <g fill="#b3b3ff">
 <g fill="#b3b3ff">
 <path d=" M 8.7859 -42.67912 C 8.7859 -37.82675 4.85239 -33.89323 0.00002 -33.89323 C -4.85236 -33.89323 -8.78587 -37.82675 -8.78587 -42.67912 C -8.78587 -47.5315 -4.85236 -51.46501 0.00002 -51.46501 C 4.85239 -51.46501 8.7859 -47.5315 8.7859 -42.67912 Z M 0.00002 -42.67912  " />
 </g>
 <g transform="translate(-2.49998,-45.90134)">
 <g fill="#000">
 <text style="stroke:none" transform="scale(1,-1) translate(2.5,0)" text-anchor="middle"  font-size="10"> 
<g fill="#000">
 <g stroke="none"> 2</g> </g>
 </text> 
</g>
 </g>
 </g>
 <path d=" M 0.0 -8.98589 L 0.00002 -33.69324  " fill="none"/>
 <g fill="#b3ffb3">
 <g fill="#b3ffb3">
 <path d=" M -12.55363 -85.35825 C -12.55363 -80.50587 -16.48715 -76.57236 -21.33952 -76.57236 C -26.1919 -76.57236 -30.12541 -80.50587 -30.12541 -85.35825 C -30.12541 -90.21062 -26.1919 -94.14413 -21.33952 -94.14413 C -16.48715 -94.14413 -12.55363 -90.21062 -12.55363 -85.35825 Z M -21.33952 -85.35825  " />
 </g>
 <g transform="translate(-23.83952,-88.58046)">
 <g fill="#000">
 <text style="stroke:none" transform="scale(1,-1) translate(2.5,0)" text-anchor="middle"  font-size="10"> 
<g fill="#000">
 <g stroke="none"> 3</g> </g>
 </text> 
</g>
 </g>
 </g>
 <path d=" M -4.01823 -50.71576 L -17.32127 -77.32161  " fill="none"/>
 <g fill="#ffffb3">
 <g fill="#ffffb3">
 <path d=" M 30.12549 -85.35825 C 30.12549 -80.50587 26.19197 -76.57236 21.3396 -76.57236 C 16.48723 -76.57236 12.55371 -80.50587 12.55371 -85.35825 C 12.55371 -90.21062 16.48723 -94.14413 21.3396 -94.14413 C 26.19197 -94.14413 30.12549 -90.21062 30.12549 -85.35825 Z M 21.3396 -85.35825  " />
 </g>
 <g transform="translate(18.8396,-88.58046)">
 <g fill="#000">
 <text style="stroke:none" transform="scale(1,-1) translate(2.5,0)" text-anchor="middle"  font-size="10"> 
<g fill="#000">
 <g stroke="none"> 4</g> </g>
 </text> 
</g>
 </g>
 </g>
 <path d=" M 4.01826 -50.71576 L 17.32135 -77.32161  " fill="none"/>
 </g>
 </g>
 
                  </g> 
</svg> 
